<svg width="622" height="78" viewBox="0 0 622 78" fill="none" xmlns="http://www.w3.org/2000/svg">
<path d="M122.259 0.461914H84.1173L59.6289 38.0742L84.1173 75.7094H122.259L97.7703 38.0742L122.259 0.461914Z" fill="#000F9F"/>
<path d="M62.6528 75.7099L38.2102 38.2124C48.5645 38.1665 56.9487 29.7445 56.9487 19.3489C56.9487 8.93033 48.5187 0.485352 38.1185 0.485352C38.0956 0.485352 38.0498 0.485352 38.0269 0.485352H6.10352e-05V0.737782C10.3315 0.737782 18.7157 9.13686 18.7157 19.4866C18.7157 29.8133 10.3773 38.1894 0.0687837 38.2353L24.4884 75.7329H62.6528V75.7099Z" fill="#000F9F"/>
<path d="M171.725 63.1567H159.928V11.6147H183.271C188.585 11.6147 193.075 13.29 196.649 16.6175C200.2 19.945 202.032 24.0757 202.032 29.0555C202.032 34.0353 200.223 38.1659 196.649 41.5852C193.098 44.9128 188.585 46.588 183.271 46.588H171.725V63.1567ZM171.725 22.4922V35.7334H183.271C186.982 35.7334 189.754 32.8878 189.754 29.0784C189.754 25.3608 186.982 22.4922 183.271 22.4922H171.725Z" fill="#3C3C3B"/>
<path d="M248.26 63.156H238.753V33.0249H248.26V43.65L255.774 33.0249H267.319L257.034 47.62L268.602 63.156H256.965L248.26 51.3377V63.156Z" fill="#3C3C3B"/>
<path d="M272.634 36.8348C275.726 33.8286 279.598 32.314 284.271 32.314C288.944 32.314 292.747 33.8286 295.817 36.8348C298.909 39.841 300.49 43.5816 300.49 48.0106C300.49 52.5314 298.909 56.2491 295.817 59.2782C292.724 62.2845 288.921 63.799 284.271 63.799C279.598 63.799 275.726 62.2845 272.634 59.2782C269.541 56.272 267.961 52.5314 267.961 48.0106C267.984 43.5816 269.564 39.841 272.634 36.8348ZM284.271 53.7936C287.432 53.7936 289.883 51.2463 289.883 48.0106C289.883 44.8437 287.432 42.2276 284.271 42.2276C281.11 42.2276 278.567 44.8437 278.567 48.0106C278.567 51.2693 281.11 53.7936 284.271 53.7936Z" fill="#3C3C3B"/>
<path d="M304.384 77.7516V32.9565H314.509V34.7006C316.8 33.1172 319.251 32.314 322.023 32.314C325.894 32.314 329.216 33.8286 331.827 36.8348C334.508 39.7722 335.859 43.4898 335.859 48.0106C335.859 52.5314 334.508 56.2491 331.827 59.2782C329.216 62.2845 325.894 63.7991 322.023 63.7991C319.251 63.7991 316.8 62.9959 314.509 61.4124V77.7516H304.384ZM319.984 53.7936C322.916 53.7936 325.299 51.3381 325.299 48.1713C325.299 44.9126 322.916 42.2276 319.984 42.2276C317.052 42.2276 314.67 44.9126 314.67 48.1713C314.67 51.3381 317.052 53.7936 319.984 53.7936Z" fill="#3C3C3B"/>
<path d="M337.944 72.3593V53.8171H342.938C343.648 52.1418 343.969 48.9061 343.969 44.064V33.0488H370.885V53.8171H376.108V72.3593H366.372V63.157H347.611V72.3593H337.944ZM361.126 53.7941V42.297H353.681V44.9131C353.681 48.4013 353.292 51.3386 352.49 53.7941H361.126Z" fill="#3C3C3B"/>
<path d="M384.721 13.29H391.388V63.1108H384.721V13.29ZM415.326 63.1108L392.052 37.6612L413.86 13.29H422.428L400.619 37.6612L423.802 63.1108H415.326Z" fill="#3C3C3B"/>
<path d="M429.575 37.661C432.324 34.6777 435.783 33.209 439.838 33.209C443.503 33.209 446.733 34.517 449.39 37.0414V33.9663H455.277V63.0877H449.39V60.1044C446.71 62.6287 443.571 63.8679 439.838 63.8679C435.783 63.8679 432.347 62.4222 429.575 59.5078C426.895 56.5933 425.52 52.9216 425.52 48.5385C425.497 44.1783 426.895 40.5754 429.575 37.661ZM440.433 39.1296C437.913 39.1296 435.852 40.0476 434.156 41.8834C432.484 43.6505 431.637 45.8765 431.637 48.5614C431.637 51.2464 432.484 53.4723 434.156 55.3082C435.852 57.0752 437.913 57.9932 440.433 57.9932C442.953 57.9932 445.015 57.0752 446.71 55.3082C448.405 53.4723 449.23 51.2464 449.23 48.5614C449.23 45.8765 448.382 43.6505 446.71 41.8834C445.015 40.0476 442.953 39.1296 440.433 39.1296Z" fill="#3C3C3B"/>
<path d="M468.816 63.1107H462.928V33.9893H489.547V63.1107H483.66V39.6575H468.816V63.1107Z" fill="#3C3C3B"/>
<path d="M502.101 63.1107H497.199V33.9893H503.086V53.3117L519.465 33.9893H524.367V63.1107H518.48V43.9488L502.101 63.1107Z" fill="#3C3C3B"/>
<path d="M539.44 39.6575H529.178V33.9893H555.499V39.6575H545.328V63.1107H539.44V39.6575Z" fill="#3C3C3B"/>
<path d="M562.302 37.661C565.051 34.6777 568.51 33.209 572.565 33.209C576.23 33.209 579.46 34.517 582.141 37.0414V33.9663H588.028V63.0877H582.141V60.1044C579.46 62.6287 576.322 63.8679 572.565 63.8679C568.51 63.8679 565.074 62.4222 562.302 59.5078C559.622 56.5933 558.248 52.9216 558.248 48.5385C558.271 44.1783 559.645 40.5754 562.302 37.661ZM573.184 39.1296C570.664 39.1296 568.602 40.0476 566.907 41.8834C565.212 43.6505 564.387 45.8765 564.387 48.5614C564.387 51.2464 565.235 53.4723 566.907 55.3082C568.602 57.0752 570.664 57.9932 573.184 57.9932C575.703 57.9932 577.765 57.0752 579.46 55.3082C581.156 53.4723 581.98 51.2464 581.98 48.5614C581.98 45.8765 581.133 43.6505 579.46 41.8834C577.765 40.0476 575.703 39.1296 573.184 39.1296Z" fill="#3C3C3B"/>
<path d="M593.228 63.1107V57.4424H594.923C597.443 57.4424 598.749 54.3674 598.749 48.2402V33.9893H622V63.1107H616.113V39.6575H604.636V49.5482C604.636 58.8193 600.879 63.1107 595.29 63.1107H593.228Z" fill="#3C3C3B"/>
<path d="M234.515 47.827C234.515 43.398 232.935 39.6804 229.819 36.6741C226.727 33.6679 222.901 32.1763 218.297 32.1763C213.692 32.1763 209.798 33.6679 206.705 36.6741C203.613 39.6804 202.101 43.398 202.101 47.827C202.101 52.3249 203.682 56.0425 206.866 59.0487C210.05 62.055 214.013 63.5466 218.778 63.5466C225.009 63.5466 230.255 60.6781 232.981 55.9737L223.795 53.2428C222.466 54.6886 220.885 55.4 218.938 55.4C216.006 55.4 214.013 54.046 213.074 51.4528H234.034C234.355 50.3513 234.515 49.158 234.515 47.827ZM213.074 44.2012C213.944 41.9064 216.098 40.3229 218.549 40.3229C221.252 40.3229 223.085 41.5851 224.115 44.2012H213.074Z" fill="#3C3C3B"/>
</svg>
