<svg width="483" height="60" viewBox="0 0 483 60" fill="none" xmlns="http://www.w3.org/2000/svg">
<path d="M94.9091 0H65.3L46.2897 29.1983L65.3 58.4145H94.9091L75.8988 29.1983L94.9091 0Z" fill="white"/>
<path d="M48.6372 58.4148L29.6624 29.3055C37.7005 29.2699 44.2091 22.7319 44.2091 14.6618C44.2091 6.57392 37.6649 0.0180969 29.5913 0.0180969C29.5735 0.0180969 29.538 0.0180969 29.5202 0.0180969H0V0.214058C8.02024 0.214058 14.5289 6.73425 14.5289 14.7687C14.5289 22.7853 8.05581 29.2877 0.0533492 29.3233L19.0103 58.4326H48.6372V58.4148Z" fill="white"/>
<path d="M133.31 48.6698H124.152V8.65796H142.273C146.398 8.65796 149.884 9.95843 152.658 12.5416C155.414 15.1247 156.837 18.3314 156.837 22.1972C156.837 26.063 155.432 29.2696 152.658 31.924C149.902 34.5071 146.398 35.8076 142.273 35.8076H133.31V48.6698ZM133.31 17.1021V27.3812H142.273C145.154 27.3812 147.305 25.1722 147.305 22.215C147.305 19.329 145.154 17.1021 142.273 17.1021H133.31Z" fill="white"/>
<path d="M192.724 48.6699H185.344V25.2791H192.724V33.5273L198.557 25.2791H207.519L199.535 36.6093L208.515 48.6699H199.481L192.724 39.4953V48.6699Z" fill="white"/>
<path d="M211.645 28.2363C214.046 25.9026 217.051 24.7268 220.679 24.7268C224.307 24.7268 227.259 25.9026 229.642 28.2363C232.042 30.5701 233.269 33.4739 233.269 36.9121C233.269 40.4216 232.042 43.3076 229.642 45.6591C227.241 47.9929 224.289 49.1686 220.679 49.1686C217.051 49.1686 214.046 47.9929 211.645 45.6591C209.244 43.3254 208.017 40.4216 208.017 36.9121C208.035 33.4739 209.262 30.5701 211.645 28.2363ZM220.679 41.4014C223.133 41.4014 225.036 39.424 225.036 36.9121C225.036 34.4537 223.133 32.4228 220.679 32.4228C218.225 32.4228 216.251 34.4537 216.251 36.9121C216.251 39.4418 218.225 41.4014 220.679 41.4014Z" fill="white"/>
<path d="M236.293 60V25.2257H244.153V26.5796C245.931 25.3504 247.834 24.7268 249.986 24.7268C252.991 24.7268 255.57 25.9026 257.597 28.2363C259.678 30.5166 260.727 33.4026 260.727 36.9121C260.727 40.4216 259.678 43.3076 257.597 45.6591C255.57 47.9929 252.991 49.1686 249.986 49.1686C247.834 49.1686 245.931 48.5451 244.153 47.3159V60H236.293ZM248.403 41.4014C250.679 41.4014 252.529 39.4952 252.529 37.0368C252.529 34.5071 250.679 32.4228 248.403 32.4228C246.127 32.4228 244.277 34.5071 244.277 37.0368C244.277 39.4952 246.127 41.4014 248.403 41.4014Z" fill="white"/>
<path d="M262.345 55.8135V41.4192H266.222C266.773 40.1187 267.022 37.6069 267.022 33.8479V25.2969H287.917V41.4192H291.972V55.8135H284.414V48.6698H269.85V55.8135H262.345ZM280.342 41.4014V32.4762H274.562V34.5071C274.562 37.2149 274.26 39.4952 273.637 41.4014H280.342Z" fill="white"/>
<path d="M298.658 9.95844H303.833V48.6342H298.658V9.95844ZM322.417 48.6342L304.349 28.8777L321.279 9.95844H327.93L311 28.8777L328.997 48.6342H322.417Z" fill="white"/>
<path d="M333.478 28.8777C335.612 26.5618 338.297 25.4216 341.445 25.4216C344.29 25.4216 346.798 26.4371 348.86 28.3967V26.0095H353.431V48.6164H348.86V46.3005C346.78 48.2601 344.344 49.2221 341.445 49.2221C338.297 49.2221 335.63 48.0998 333.478 45.8373C331.397 43.5748 330.33 40.7245 330.33 37.3219C330.313 33.9371 331.397 31.1402 333.478 28.8777ZM341.907 30.0178C339.951 30.0178 338.351 30.7304 337.035 32.1556C335.736 33.5273 335.078 35.2554 335.078 37.3397C335.078 39.424 335.736 41.152 337.035 42.5772C338.351 43.9489 339.951 44.6615 341.907 44.6615C343.863 44.6615 345.464 43.9489 346.78 42.5772C348.096 41.152 348.736 39.424 348.736 37.3397C348.736 35.2554 348.078 33.5273 346.78 32.1556C345.464 30.7304 343.863 30.0178 341.907 30.0178Z" fill="white"/>
<path d="M363.941 48.6342H359.37V26.0273H380.034V48.6342H375.464V30.4276H363.941V48.6342Z" fill="white"/>
<path d="M389.78 48.6342H385.974V26.0273H390.544V41.0273L403.259 26.0273H407.065V48.6342H402.495V33.7589L389.78 48.6342Z" fill="white"/>
<path d="M418.766 30.4276H410.8V26.0273H431.233V30.4276H423.337V48.6342H418.766V30.4276Z" fill="white"/>
<path d="M436.514 28.8777C438.648 26.5618 441.333 25.4216 444.481 25.4216C447.326 25.4216 449.834 26.4371 451.914 28.3967V26.0095H456.485V48.6164H451.914V46.3005C449.834 48.2601 447.397 49.2221 444.481 49.2221C441.333 49.2221 438.666 48.0998 436.514 45.8373C434.433 43.5748 433.366 40.7245 433.366 37.3219C433.384 33.9371 434.451 31.1402 436.514 28.8777ZM444.961 30.0178C443.005 30.0178 441.404 30.7304 440.089 32.1556C438.773 33.5273 438.132 35.2554 438.132 37.3397C438.132 39.424 438.79 41.152 440.089 42.5772C441.404 43.9489 443.005 44.6615 444.961 44.6615C446.917 44.6615 448.518 43.9489 449.834 42.5772C451.15 41.152 451.79 39.424 451.79 37.3397C451.79 35.2554 451.132 33.5273 449.834 32.1556C448.518 30.7304 446.917 30.0178 444.961 30.0178Z" fill="white"/>
<path d="M460.521 48.6342V44.234H461.837C463.794 44.234 464.807 41.8468 464.807 37.0903V26.0273H482.857V48.6342H478.287V30.4276H469.378V38.1057C469.378 45.3029 466.461 48.6342 462.122 48.6342H460.521Z" fill="white"/>
<path d="M182.054 36.7696C182.054 33.3314 180.827 30.4454 178.408 28.1116C176.007 25.7779 173.038 24.62 169.463 24.62C165.889 24.62 162.866 25.7779 160.465 28.1116C158.064 30.4454 156.891 33.3314 156.891 36.7696C156.891 40.2613 158.118 43.1473 160.589 45.481C163.061 47.8147 166.138 48.9727 169.837 48.9727C174.674 48.9727 178.746 46.7459 180.862 43.0938L173.731 40.9739C172.7 42.0962 171.473 42.6485 169.961 42.6485C167.685 42.6485 166.138 41.5974 165.409 39.5843H181.68C181.929 38.7292 182.054 37.8029 182.054 36.7696ZM165.409 33.9549C166.084 32.1734 167.756 30.9442 169.659 30.9442C171.757 30.9442 173.18 31.924 173.98 33.9549H165.409Z" fill="white"/>
</svg>
