<svg width="190" height="284" viewBox="0 0 190 284" fill="none" xmlns="http://www.w3.org/2000/svg">
<path d="M24.3497 255.732V272.18L20.073 276.452H5.51791V283.272H0.248779V251.485H20.073L24.3497 255.756V255.732ZM5.51791 271.992H19.0806V255.921H5.51791V271.992Z" fill="url(#paint0_linear_499_273)"/>
<path d="M53.1055 283.271H47.8836V263.779L34.6517 283.271H28.5556V257.832H33.7775V277.419L47.0094 257.832H53.1055V283.271Z" fill="url(#paint1_linear_499_273)"/>
<path d="M57.7365 278.717V268.711L75.1033 268.263V262.363H58.6343V257.832H75.8358L80.3961 262.363V283.248H62.2967L57.7365 278.717ZM63.0056 272.534V278.811H75.1033V271.637L63.0056 272.534Z" fill="url(#paint2_linear_499_273)"/>
<path d="M108.585 257.832V283.271H103.316V262.245H94.219L92.2579 283.271H83.6099V278.552H87.7921L89.3043 262.245H85.8073V257.832H108.585Z" fill="url(#paint3_linear_499_273)"/>
<path d="M121.321 283.271V256.11H112.035V251.484H135.876V256.11H126.59V283.271H121.321Z" fill="url(#paint4_linear_499_273)"/>
<path d="M137.246 278.811V262.269L141.712 257.809H159.552V271.992H142.539V278.717H158.63V283.248H141.712L137.246 278.788V278.811ZM142.515 268.641L154.755 268.192V262.198H142.515V268.641Z" fill="url(#paint5_linear_499_273)"/>
<path d="M162.812 283.271L169.735 269.726L163.403 257.832H169.31L174.225 267.909H178.052L182.967 257.832H188.874L182.542 269.726L189.465 283.271H183.558L178.454 272.463H173.823L168.719 283.271H162.812Z" fill="url(#paint6_linear_499_273)"/>
<path d="M151.47 126.508C151.47 130.897 147.926 134.437 143.531 134.437C139.136 134.437 135.592 130.897 135.592 126.508C135.592 122.118 139.136 118.579 143.531 118.579C147.926 118.579 151.47 122.118 151.47 126.508Z" fill="url(#paint7_linear_499_273)"/>
<path d="M146.745 110.343C146.745 110.343 140.436 109.045 135.498 112.018C129.898 115.393 128.716 119.027 128.504 120.891V124.478C128.504 125.446 128.007 126.342 127.18 126.838L100.717 142.932L83.1371 153.127C83.3498 152.985 72.9296 161.032 64.1871 149.469C60.4775 144.56 54.5231 144.136 54.5231 144.136C54.5231 144.136 48.3561 143.121 43.7249 146.92C38.0777 151.569 37.9123 158.601 37.9123 158.601V158.389C37.9123 159.097 37.5579 159.734 36.9436 160.112L12.3228 175.073C11.3777 175.639 10.1726 174.979 10.1726 173.87V137.174C10.1726 136.513 10.527 135.876 11.0941 135.546L36.6837 119.971C37.109 119.711 37.6524 119.9 37.8178 120.325C37.8415 120.278 37.936 120.254 37.9832 120.325L54.4759 132.69L54.3341 77.3994L83.1135 59.8894L100.693 75.0868V17.9079L128.504 0.987854L146.225 13.6602L146.721 110.366L146.745 110.343Z" fill="url(#paint8_linear_499_273)"/>
<path d="M128.551 120.348V121.646C128.551 121.646 128.456 121.174 128.551 120.348Z" fill="url(#paint9_linear_499_273)"/>
<path d="M14.1659 186.872C14.1659 189.657 11.8975 191.899 9.13302 191.899C6.36849 191.899 4.07654 189.633 4.07654 186.872C4.07654 184.111 6.34486 181.846 9.13302 181.846C10.7161 181.846 12.1338 182.577 13.0553 183.71C13.7642 184.583 14.1895 185.692 14.1895 186.896L14.1659 186.872Z" fill="url(#paint10_linear_499_273)"/>
<path d="M75.3876 176.371C75.3876 179.155 73.1193 181.421 70.3311 181.421C67.543 181.421 65.2983 179.155 65.2983 176.371C65.2983 173.586 67.5666 171.344 70.3311 171.344C71.9142 171.344 73.3319 172.076 74.2534 173.209C74.9623 174.082 75.3876 175.167 75.3876 176.371Z" fill="url(#paint11_linear_499_273)"/>
<path d="M112.035 153.221C112.035 156.006 109.766 158.247 107.002 158.247C104.237 158.247 101.969 155.982 101.969 153.221C101.969 150.46 104.237 148.194 107.002 148.194C108.585 148.194 110.002 148.926 110.924 150.059C111.633 150.932 112.058 152.041 112.058 153.245L112.035 153.221Z" fill="url(#paint12_linear_499_273)"/>
<path d="M181.219 182.2C181.219 183.97 180.557 185.598 179.47 186.825C178.407 188.052 176.871 188.902 175.17 189.138C176.044 188.902 176.895 188.477 177.651 187.911C178.927 186.967 179.801 185.716 180.274 184.347C181.054 182.153 180.817 179.675 179.494 177.645C179.541 177.693 179.589 177.763 179.636 177.811C180.628 179.014 181.219 180.548 181.219 182.224V182.2Z" fill="url(#paint13_linear_499_273)"/>
<path d="M21.4438 200.206C21.4438 200.819 21.2311 201.409 20.8767 201.858L19.7426 200.583L21.2784 199.285C21.3965 199.569 21.4438 199.875 21.4438 200.206Z" fill="url(#paint14_linear_499_273)"/>
<path d="M178.832 142.271C178.454 145.268 175.5 147.204 172.594 146.378C170.349 145.74 168.861 143.569 169.05 141.257C169.05 141.257 169.05 141.233 169.05 141.21C169.239 139.345 168.79 137.505 167.774 135.947L165.789 132.95C165.647 132.738 165.506 132.525 165.34 132.337C164.962 132.596 164.537 132.832 164.088 132.997C164.088 132.997 164.041 132.997 164.017 132.997C161.583 133.941 159.551 135.664 158.275 137.929L156.078 141.917C154.778 144.254 154.424 146.944 154.991 149.563C154.991 149.563 154.991 149.611 154.991 149.634C155.322 151.333 154.991 153.056 154.117 154.448C153.55 155.392 152.77 156.194 151.778 156.784C151.447 156.973 151.092 157.162 150.714 157.304C146.816 158.767 142.562 156.407 141.712 152.324C141.05 149.186 142.752 145.976 145.705 144.726C145.705 144.726 145.752 144.726 145.776 144.702C148.139 143.735 150.147 142.035 151.376 139.794L153.762 135.475C155.015 133.21 155.393 130.543 154.896 128.018C154.896 128.018 154.896 127.971 154.896 127.947C154.306 124.761 156.125 121.552 159.15 120.419C160.426 119.947 161.749 119.877 162.977 120.136C164.726 120.514 166.285 121.552 167.254 123.086C167.585 123.841 167.727 124.691 167.632 125.54V125.611C167.49 126.744 167.609 127.9 167.939 128.986C168.152 129.67 168.459 130.331 168.861 130.944L170.68 133.682C171.744 135.286 173.374 136.419 175.241 136.938C175.241 136.938 175.264 136.938 175.288 136.938C177.58 137.599 179.092 139.888 178.785 142.248L178.832 142.271Z" fill="url(#paint15_linear_499_273)"/>
<path d="M165.695 166.129C165.695 167.616 164.49 168.843 162.978 168.843C161.465 168.843 160.26 167.64 160.26 166.129C160.26 164.619 161.465 163.416 162.978 163.416C163.828 163.416 164.584 163.817 165.08 164.407C165.459 164.879 165.695 165.469 165.695 166.106V166.129Z" fill="url(#paint16_linear_499_273)"/>
<path d="M180.274 184.324C179.801 185.692 178.903 186.919 177.651 187.887C176.895 188.453 176.044 188.878 175.17 189.114C176.895 188.902 178.407 188.052 179.47 186.802C178.549 188.43 177.013 189.704 175.123 190.2C175.123 190.2 175.075 190.2 175.052 190.2C172.453 190.86 170.161 192.324 168.554 194.471L165.482 198.577C163.852 200.748 163.096 203.415 163.238 206.105V206.176C163.379 209.55 161.04 212.595 157.756 213.35C153.479 214.294 149.415 211.249 149.155 206.884C148.966 203.509 151.234 200.418 154.519 199.615C154.542 199.615 154.566 199.615 154.59 199.615C157.236 199.002 159.599 197.539 161.206 195.368L164.041 191.592C165.27 189.964 166.002 188.052 166.215 186.046C164.419 184.866 162.34 184.135 160.166 183.993L154.59 183.616C151.66 183.427 148.777 184.324 146.391 186.046C146.367 186.046 146.343 186.07 146.32 186.094C143.343 188.217 139.184 187.911 136.561 185.362C133.159 182.058 133.537 176.536 137.341 173.728C140.294 171.533 144.453 171.793 147.123 174.294C147.123 174.294 147.17 174.342 147.194 174.365C149.321 176.395 152.061 177.669 154.991 177.858L160.119 178.212C163.12 178.4 166.073 177.48 168.46 175.663C168.46 175.663 168.507 175.616 168.53 175.592C171.531 173.398 175.761 173.681 178.431 176.277C178.856 176.678 179.21 177.126 179.518 177.598C180.841 179.628 181.077 182.105 180.297 184.3L180.274 184.324Z" fill="url(#paint17_linear_499_273)"/>
<path d="M154.188 154.472C153.716 155.534 152.889 156.383 151.849 156.808C152.818 156.242 153.621 155.416 154.188 154.472Z" fill="url(#paint18_linear_499_273)"/>
<path d="M122.1 202.919C122.1 204.005 121.273 204.901 120.257 204.901C119.241 204.901 118.391 204.028 118.391 202.919C118.391 201.81 119.217 200.96 120.257 200.96C120.824 200.96 121.344 201.244 121.698 201.692C121.958 202.022 122.1 202.471 122.1 202.943V202.919Z" fill="url(#paint19_linear_499_273)"/>
<path d="M118.155 184.111C118.155 185.197 117.328 186.094 116.312 186.094C115.296 186.094 114.445 185.221 114.445 184.111C114.445 183.002 115.272 182.153 116.312 182.153C116.879 182.153 117.399 182.436 117.753 182.884C118.013 183.215 118.155 183.663 118.155 184.135V184.111Z" fill="url(#paint20_linear_499_273)"/>
<path d="M97.1487 158.625C97.1487 159.711 96.3217 160.584 95.3057 160.584C94.2897 160.584 93.4627 159.711 93.4627 158.625C93.4627 157.539 94.2897 156.666 95.3057 156.666C95.8964 156.666 96.3926 156.95 96.7471 157.398C97.007 157.728 97.1724 158.177 97.1724 158.649L97.1487 158.625Z" fill="url(#paint21_linear_499_273)"/>
<path d="M52.0424 178.92C52.0424 180.005 51.2154 180.878 50.1993 180.878C49.1833 180.878 48.3563 180.005 48.3563 178.92C48.3563 177.834 49.1833 176.961 50.1993 176.961C50.79 176.961 51.2862 177.244 51.6407 177.692C51.9006 178.023 52.066 178.471 52.066 178.943L52.0424 178.92Z" fill="url(#paint22_linear_499_273)"/>
<path d="M136.254 211.297C136.254 213.704 134.387 215.639 132.119 215.639C129.851 215.639 127.984 213.704 127.984 211.297C127.984 208.89 129.851 206.955 132.119 206.955C133.418 206.955 134.576 207.568 135.332 208.559C135.923 209.314 136.254 210.258 136.254 211.297Z" fill="url(#paint23_linear_499_273)"/>
<path d="M186.322 160.772C186.322 163.722 184.03 166.129 181.219 166.129C178.407 166.129 176.115 163.722 176.115 160.772C176.115 157.823 178.407 155.416 181.219 155.416C182.825 155.416 184.243 156.194 185.188 157.398C185.897 158.318 186.322 159.498 186.322 160.772Z" fill="url(#paint24_linear_499_273)"/>
<path d="M60.0765 160.749C60.0765 167.899 53.7913 168.277 52.7044 168.277C48.6403 168.277 45.3323 164.902 45.3323 160.749C45.3323 156.596 48.6403 153.221 52.7044 153.221C56.7685 153.221 60.0765 156.596 60.0765 160.749Z" fill="url(#paint25_linear_499_273)"/>
<path d="M22.5302 198.247L21.2779 199.309C21.1834 199.026 21.018 198.743 20.829 198.507C20.6636 198.318 20.4982 198.129 20.2855 198.011L21.3488 197.114C21.8214 197.421 22.2231 197.799 22.5302 198.247Z" fill="url(#paint26_linear_499_273)"/>
<path d="M21.8453 202.943C21.4436 203.344 20.971 203.651 20.4748 203.91L19.4824 202.801C20.0259 202.636 20.5221 202.305 20.8765 201.857L21.8453 202.943Z" fill="url(#paint27_linear_499_273)"/>
<path d="M54.5706 209.881C54.4998 212.618 52.4205 214.954 49.7032 215.332C49.7032 215.332 49.6559 215.332 49.6323 215.332C47.4585 215.615 45.4501 216.654 43.9615 218.258L41.386 221.09C39.8738 222.765 39.0468 224.913 38.9995 227.155C38.9995 227.178 38.9995 227.202 38.9995 227.226C38.905 230.01 36.7785 232.346 34.0139 232.7C30.5169 233.149 27.4689 230.388 27.587 226.872C27.6579 224.158 29.6663 221.845 32.3363 221.397C32.3363 221.397 32.3836 221.397 32.4072 221.397C34.5338 221.066 36.5185 220.052 37.9835 218.447L40.7953 215.356C42.2602 213.727 43.0872 211.627 43.1581 209.432C43.1581 209.432 43.1581 209.385 43.1581 209.362C43.2999 206.624 45.4028 204.359 48.1201 204.005C51.6171 203.556 54.6888 206.341 54.5706 209.857V209.881Z" fill="url(#paint28_linear_499_273)"/>
<path d="M23.263 200.512V200.465C23.263 199.639 22.9794 198.884 22.5305 198.247C22.2233 197.799 21.8216 197.397 21.3491 197.114L20.2858 198.011C20.4984 198.153 20.6875 198.318 20.8292 198.507C21.0183 198.743 21.16 199.002 21.2782 199.309L19.7423 200.607L20.8765 201.881C20.5221 202.33 20.0495 202.66 19.4824 202.825L20.4748 203.934C20.971 203.675 21.4436 203.368 21.8453 202.967C22.4832 202.353 22.9794 201.574 23.263 200.701C23.263 200.654 23.263 200.583 23.263 200.536V200.512Z" fill="url(#paint29_linear_499_273)"/>
<path d="M40.9844 185.905C40.4882 188.477 38.2199 190.365 35.5971 190.365H35.5262C33.4469 190.365 31.3913 191.025 29.7609 192.3L26.6183 194.801C24.9407 196.123 23.8538 197.987 23.4285 200.064C23.4285 200.064 23.4285 200.111 23.4285 200.134C23.3812 200.3 23.3576 200.488 23.2867 200.654C23.3576 202.188 23.9011 203.674 24.9171 204.854L26.7601 206.954C27.8234 208.182 29.312 208.96 30.9423 209.196H30.9896C32.998 209.503 34.5102 211.249 34.5102 213.255C34.5102 215.804 32.2655 217.786 29.7373 217.408C27.7761 217.125 26.2875 215.473 26.193 213.515V213.468C26.1221 211.91 25.5787 210.4 24.539 209.196L22.5306 206.907C21.491 205.704 20.026 204.949 18.4665 204.689H18.4193C18.1594 204.642 17.8994 204.571 17.6632 204.477C14.3316 204.264 11.9687 201.196 12.6067 197.893C13.1265 195.297 15.4657 193.409 18.1121 193.456C18.1121 193.456 18.1594 193.456 18.183 193.456C20.3095 193.527 22.3888 192.866 24.0428 191.545L26.9491 189.232C28.6504 187.887 29.7609 185.952 30.1626 183.828C30.1626 183.828 30.1626 183.781 30.1626 183.757C30.6824 181.138 33.0925 179.226 35.7625 179.321C39.165 179.462 41.6224 182.554 40.9844 185.881V185.905Z" fill="url(#paint30_linear_499_273)"/>
<path d="M180.274 184.347C180.156 185.22 179.872 186.07 179.47 186.825C178.407 188.052 176.871 188.902 175.17 189.138C176.044 188.902 176.895 188.477 177.651 187.911C178.927 186.967 179.801 185.716 180.274 184.347Z" fill="url(#paint31_linear_499_273)"/>
<path d="M167.302 123.086C166.333 121.552 164.774 120.49 163.025 120.136C163.403 120.136 163.805 120.207 164.183 120.325C165.625 120.726 166.735 121.788 167.302 123.086Z" fill="url(#paint32_linear_499_273)"/>
<path d="M80.6556 196.335C80.6556 196.335 80.632 196.335 80.6084 196.335C79.1434 197.114 77.9856 198.365 77.3713 199.899L76.308 202.565C75.67 204.146 75.67 205.869 76.2371 207.474C76.2371 207.474 76.2371 207.497 76.2371 207.521C76.8987 209.503 76.0008 211.721 74.1578 212.689C74.1578 212.689 74.1578 212.689 74.1342 212.689C72.9291 213.751 71.2043 214.223 69.503 213.727C67.2583 213.09 65.7697 210.919 65.9588 208.606V208.559C66.1478 206.719 65.6989 204.854 64.6828 203.297L62.7217 200.3C61.682 198.719 60.0989 197.61 58.3032 197.067C58.3032 197.067 58.2559 197.067 58.2323 197.067C55.9876 196.383 54.5226 194.141 54.8298 191.804C55.2078 188.784 58.1614 186.825 61.0913 187.675C63.3596 188.336 64.8482 190.53 64.6119 192.866C64.6119 192.866 64.6119 192.914 64.6119 192.937C64.3993 194.801 64.801 196.689 65.8643 198.27L67.6836 201.031C68.6288 202.424 69.9756 203.486 71.5351 204.076C72.2675 203.391 72.8583 202.542 73.2363 201.598L74.3941 198.695C75.0084 197.161 75.0321 195.462 74.5122 193.905C74.5122 193.905 74.5122 193.881 74.5122 193.858C73.8743 191.899 74.7722 189.728 76.5915 188.76C78.9308 187.533 81.837 188.666 82.6877 191.191C83.3493 193.126 82.4986 195.321 80.6793 196.312L80.6556 196.335Z" fill="url(#paint33_linear_499_273)"/>
<path d="M135.876 159.758C134.482 163.982 130.205 166.648 125.786 166.011C125.739 166.011 125.715 166.011 125.692 166.011C122.148 165.468 118.556 166.129 115.508 167.97L110.192 171.203C107.073 173.114 104.804 176.088 103.694 179.557C103.694 179.604 103.694 179.627 103.67 179.651C103.552 179.981 103.434 180.312 103.292 180.619C103.292 180.878 103.292 181.114 103.292 181.374C103.292 181.374 103.292 181.421 103.292 181.444C103.079 183.309 103.481 185.197 104.521 186.778L106.34 189.539C107.403 191.143 109.034 192.276 110.877 192.795C110.877 192.795 110.924 192.795 110.948 192.795C113.24 193.456 114.728 195.745 114.421 198.105C114.043 201.102 111.089 203.037 108.207 202.211C105.962 201.574 104.473 199.403 104.662 197.09V197.019C104.852 195.179 104.403 193.314 103.387 191.757L101.425 188.76C100.433 187.273 98.968 186.164 97.2432 185.621C96.0145 185.952 94.7149 186.023 93.4154 185.81C87.7682 184.89 84.3184 179.203 86.0669 173.775C87.4138 169.598 91.6196 166.908 95.9909 167.451C96.0381 167.451 96.0618 167.451 96.109 167.451C99.5824 167.923 103.127 167.238 106.127 165.398L111.893 161.881C114.941 160.041 117.186 157.138 118.32 153.764C118.32 153.74 118.32 153.693 118.343 153.669C119.808 149.469 124.156 146.873 128.551 147.581C134.222 148.501 137.719 154.212 135.923 159.663L135.876 159.758Z" fill="url(#paint34_linear_499_273)"/>
<path d="M167.987 128.962C167.656 127.876 167.538 126.743 167.68 125.587V125.516C167.774 124.667 167.633 123.841 167.302 123.086C167.751 123.77 168.058 124.549 168.247 125.375C168.507 126.602 168.389 127.829 167.987 128.938V128.962Z" fill="url(#paint35_linear_499_273)"/>
<path d="M11.0937 135.805L36.6833 120.23C37.2267 119.9 37.8883 120.277 37.8883 120.915V158.648C37.8883 159.356 37.5339 159.994 36.9195 160.371L12.2987 175.333C11.3536 175.899 10.1486 175.238 10.1486 174.129V137.434C10.1486 136.773 10.503 136.136 11.0701 135.805H11.0937Z" fill="url(#paint36_linear_499_273)"/>
<path d="M54.3106 77.6589L83.09 60.149V153.41C83.3027 153.292 72.8825 161.315 64.14 149.752C60.4304 144.844 54.476 144.419 54.476 144.419L54.3106 77.6589Z" fill="url(#paint37_linear_499_273)"/>
<path d="M37.9835 120.584L54.4998 132.974V144.419C54.4998 144.419 48.3328 143.404 43.7016 147.203C38.0544 151.852 37.889 158.885 37.889 158.885L37.7945 120.679C37.7945 120.679 37.889 120.537 37.9599 120.584H37.9835Z" fill="url(#paint38_linear_499_273)"/>
<path d="M83.1136 60.149L100.74 75.3935L100.693 143.215L83.1136 153.41V60.149Z" fill="url(#paint39_linear_499_273)"/>
<path d="M128.527 0.72834L146.249 13.3771L146.745 110.06C146.745 110.06 140.436 108.762 135.498 111.735C127.511 116.573 128.504 121.882 128.504 121.882V0.72834H128.527Z" fill="url(#paint40_linear_499_273)"/>
<path d="M100.693 18.1675L128.48 1.2711V124.761C128.48 125.729 127.984 126.626 127.157 127.121L100.693 143.215V18.1675Z" fill="url(#paint41_linear_499_273)"/>
<defs>
<linearGradient id="paint0_linear_499_273" x1="34.9804" y1="251.903" x2="-8.50577" y2="288.2" gradientUnits="userSpaceOnUse">
<stop/>
<stop offset="1" stop-color="#000F9F"/>
</linearGradient>
<linearGradient id="paint1_linear_499_273" x1="63.9342" y1="258.167" x2="28.6273" y2="295.677" gradientUnits="userSpaceOnUse">
<stop/>
<stop offset="1" stop-color="#000F9F"/>
</linearGradient>
<linearGradient id="paint2_linear_499_273" x1="90.391" y1="258.167" x2="55.0583" y2="292.846" gradientUnits="userSpaceOnUse">
<stop/>
<stop offset="1" stop-color="#000F9F"/>
</linearGradient>
<linearGradient id="paint3_linear_499_273" x1="119.601" y1="258.167" x2="84.3362" y2="296.281" gradientUnits="userSpaceOnUse">
<stop/>
<stop offset="1" stop-color="#000F9F"/>
</linearGradient>
<linearGradient id="paint4_linear_499_273" x1="146.392" y1="251.902" x2="102.992" y2="287.737" gradientUnits="userSpaceOnUse">
<stop/>
<stop offset="1" stop-color="#000F9F"/>
</linearGradient>
<linearGradient id="paint5_linear_499_273" x1="169.39" y1="258.144" x2="134.041" y2="292.265" gradientUnits="userSpaceOnUse">
<stop/>
<stop offset="1" stop-color="#000F9F"/>
</linearGradient>
<linearGradient id="paint6_linear_499_273" x1="201.221" y1="258.167" x2="166.207" y2="298.553" gradientUnits="userSpaceOnUse">
<stop/>
<stop offset="1" stop-color="#000F9F"/>
</linearGradient>
<linearGradient id="paint7_linear_499_273" x1="158.474" y1="118.787" x2="136.528" y2="142.977" gradientUnits="userSpaceOnUse">
<stop/>
<stop offset="1" stop-color="#000F9F"/>
</linearGradient>
<linearGradient id="paint8_linear_499_273" x1="206.985" y1="3.27997" x2="-32.7361" y2="210.069" gradientUnits="userSpaceOnUse">
<stop/>
<stop offset="1" stop-color="#000F9F"/>
</linearGradient>
<linearGradient id="paint9_linear_499_273" x1="128.569" y1="120.365" x2="128.441" y2="120.37" gradientUnits="userSpaceOnUse">
<stop/>
<stop offset="1" stop-color="#000F9F"/>
</linearGradient>
<linearGradient id="paint10_linear_499_273" x1="18.6502" y1="181.978" x2="4.74466" y2="197.378" gradientUnits="userSpaceOnUse">
<stop/>
<stop offset="1" stop-color="#000F9F"/>
</linearGradient>
<linearGradient id="paint11_linear_499_273" x1="79.8379" y1="171.477" x2="65.8932" y2="186.848" gradientUnits="userSpaceOnUse">
<stop/>
<stop offset="1" stop-color="#000F9F"/>
</linearGradient>
<linearGradient id="paint12_linear_499_273" x1="116.508" y1="148.327" x2="102.6" y2="163.694" gradientUnits="userSpaceOnUse">
<stop/>
<stop offset="1" stop-color="#000F9F"/>
</linearGradient>
<linearGradient id="paint13_linear_499_273" x1="183.887" y1="177.797" x2="170.023" y2="185.829" gradientUnits="userSpaceOnUse">
<stop/>
<stop offset="1" stop-color="#000F9F"/>
</linearGradient>
<linearGradient id="paint14_linear_499_273" x1="22.1942" y1="199.319" x2="18.7904" y2="201.797" gradientUnits="userSpaceOnUse">
<stop/>
<stop offset="1" stop-color="#000F9F"/>
</linearGradient>
<linearGradient id="paint15_linear_499_273" x1="195.268" y1="120.484" x2="142.956" y2="177.325" gradientUnits="userSpaceOnUse">
<stop/>
<stop offset="1" stop-color="#000F9F"/>
</linearGradient>
<linearGradient id="paint16_linear_499_273" x1="168.092" y1="163.487" x2="160.581" y2="171.766" gradientUnits="userSpaceOnUse">
<stop/>
<stop offset="1" stop-color="#000F9F"/>
</linearGradient>
<linearGradient id="paint17_linear_499_273" x1="201.258" y1="172.78" x2="145.158" y2="242.356" gradientUnits="userSpaceOnUse">
<stop/>
<stop offset="1" stop-color="#000F9F"/>
</linearGradient>
<linearGradient id="paint18_linear_499_273" x1="155.22" y1="154.503" x2="151.987" y2="158.066" gradientUnits="userSpaceOnUse">
<stop/>
<stop offset="1" stop-color="#000F9F"/>
</linearGradient>
<linearGradient id="paint19_linear_499_273" x1="123.736" y1="201.012" x2="118.26" y2="206.687" gradientUnits="userSpaceOnUse">
<stop/>
<stop offset="1" stop-color="#000F9F"/>
</linearGradient>
<linearGradient id="paint20_linear_499_273" x1="119.791" y1="182.205" x2="114.315" y2="187.879" gradientUnits="userSpaceOnUse">
<stop/>
<stop offset="1" stop-color="#000F9F"/>
</linearGradient>
<linearGradient id="paint21_linear_499_273" x1="98.8087" y1="156.718" x2="93.3666" y2="162.391" gradientUnits="userSpaceOnUse">
<stop/>
<stop offset="1" stop-color="#000F9F"/>
</linearGradient>
<linearGradient id="paint22_linear_499_273" x1="53.7023" y1="177.012" x2="48.2602" y2="182.686" gradientUnits="userSpaceOnUse">
<stop/>
<stop offset="1" stop-color="#000F9F"/>
</linearGradient>
<linearGradient id="paint23_linear_499_273" x1="139.902" y1="207.069" x2="127.84" y2="219.714" gradientUnits="userSpaceOnUse">
<stop/>
<stop offset="1" stop-color="#000F9F"/>
</linearGradient>
<linearGradient id="paint24_linear_499_273" x1="190.825" y1="155.557" x2="175.945" y2="171.163" gradientUnits="userSpaceOnUse">
<stop/>
<stop offset="1" stop-color="#000F9F"/>
</linearGradient>
<linearGradient id="paint25_linear_499_273" x1="66.5799" y1="153.419" x2="45.7047" y2="175.924" gradientUnits="userSpaceOnUse">
<stop/>
<stop offset="1" stop-color="#000F9F"/>
</linearGradient>
<linearGradient id="paint26_linear_499_273" x1="23.5203" y1="197.143" x2="20.4901" y2="200.555" gradientUnits="userSpaceOnUse">
<stop/>
<stop offset="1" stop-color="#000F9F"/>
</linearGradient>
<linearGradient id="paint27_linear_499_273" x1="22.8875" y1="201.884" x2="20.1109" y2="205.402" gradientUnits="userSpaceOnUse">
<stop/>
<stop offset="1" stop-color="#000F9F"/>
</linearGradient>
<linearGradient id="paint28_linear_499_273" x1="66.479" y1="204.336" x2="26.4666" y2="245.629" gradientUnits="userSpaceOnUse">
<stop/>
<stop offset="1" stop-color="#000F9F"/>
</linearGradient>
<linearGradient id="paint29_linear_499_273" x1="24.9305" y1="197.204" x2="16.4973" y2="202.35" gradientUnits="userSpaceOnUse">
<stop/>
<stop offset="1" stop-color="#000F9F"/>
</linearGradient>
<linearGradient id="paint30_linear_499_273" x1="53.6932" y1="179.819" x2="1.63056" y2="222.775" gradientUnits="userSpaceOnUse">
<stop/>
<stop offset="1" stop-color="#000F9F"/>
</linearGradient>
<linearGradient id="paint31_linear_499_273" x1="182.525" y1="184.41" x2="175.948" y2="192.124" gradientUnits="userSpaceOnUse">
<stop/>
<stop offset="1" stop-color="#000F9F"/>
</linearGradient>
<linearGradient id="paint32_linear_499_273" x1="169.189" y1="120.175" x2="165.498" y2="126.066" gradientUnits="userSpaceOnUse">
<stop/>
<stop offset="1" stop-color="#000F9F"/>
</linearGradient>
<linearGradient id="paint33_linear_499_273" x1="95.3149" y1="187.823" x2="58.9899" y2="230.341" gradientUnits="userSpaceOnUse">
<stop/>
<stop offset="1" stop-color="#000F9F"/>
</linearGradient>
<linearGradient id="paint34_linear_499_273" x1="158.797" y1="148.187" x2="82.4214" y2="225.914" gradientUnits="userSpaceOnUse">
<stop/>
<stop offset="1" stop-color="#000F9F"/>
</linearGradient>
<linearGradient id="paint35_linear_499_273" x1="168.863" y1="123.163" x2="165.678" y2="123.809" gradientUnits="userSpaceOnUse">
<stop/>
<stop offset="1" stop-color="#000F9F"/>
</linearGradient>
<linearGradient id="paint36_linear_499_273" x1="50.124" y1="120.837" x2="-15.0253" y2="156.729" gradientUnits="userSpaceOnUse">
<stop/>
<stop offset="1" stop-color="#000F9F"/>
</linearGradient>
<linearGradient id="paint37_linear_499_273" x1="95.7889" y1="61.4096" x2="16.3525" y2="87.6664" gradientUnits="userSpaceOnUse">
<stop/>
<stop offset="1" stop-color="#000F9F"/>
</linearGradient>
<linearGradient id="paint38_linear_499_273" x1="61.8683" y1="121.079" x2="20.3046" y2="141.031" gradientUnits="userSpaceOnUse">
<stop/>
<stop offset="1" stop-color="#000F9F"/>
</linearGradient>
<linearGradient id="paint39_linear_499_273" x1="108.515" y1="61.3754" x2="56.7919" y2="72.1376" gradientUnits="userSpaceOnUse">
<stop/>
<stop offset="1" stop-color="#000F9F"/>
</linearGradient>
<linearGradient id="paint40_linear_499_273" x1="154.808" y1="2.32164" x2="100.347" y2="11.368" gradientUnits="userSpaceOnUse">
<stop/>
<stop offset="1" stop-color="#000F9F"/>
</linearGradient>
<linearGradient id="paint41_linear_499_273" x1="140.736" y1="3.13781" x2="59.4445" y2="20.6568" gradientUnits="userSpaceOnUse">
<stop/>
<stop offset="1" stop-color="#000F9F"/>
</linearGradient>
</defs>
</svg>
